<svg width="253" height="253" viewBox="0 0 253 253" fill="none" xmlns="http://www.w3.org/2000/svg">
<path d="M126.45 0C56.6131 0 0 56.9025 0 127.093C0 191.178 47.1996 244.158 108.559 252.897V165.81H78.6603V130.822H108.559V105.021C108.559 75.0776 126.658 58.774 153.094 58.774C165.756 58.774 176.642 59.7266 179.812 60.1537V91.4458L161.477 91.4543C147.101 91.4543 144.316 98.3584 144.316 108.486V130.822H178.604L174.139 165.81H144.319V252.9C205.689 244.172 252.9 191.187 252.9 127.093C252.9 56.9025 196.287 0 126.45 0Z" fill="black" style="fill:black;fill-opacity:1;"/>
</svg>
