<svg width="254" height="254" viewBox="0 0 254 254" fill="none" xmlns="http://www.w3.org/2000/svg">
<path d="M126.857 89.6797C105.939 89.6797 88.9219 106.697 88.9219 127.615C88.9219 148.532 105.939 165.55 126.857 165.55C147.775 165.55 164.792 148.532 164.792 127.615C164.792 106.697 147.775 89.6797 126.857 89.6797Z" fill="black" style="fill:black;fill-opacity:1;"/>
<path d="M179.454 0.40625H74.2587C33.4715 0.40625 0.40625 33.4715 0.40625 74.2587V179.457C0.40625 220.241 33.4715 253.306 74.2587 253.306H179.457C220.241 253.306 253.306 220.241 253.306 179.454V74.2587C253.306 33.4715 220.241 0.40625 179.454 0.40625ZM126.856 193.394C90.5848 193.394 61.077 163.886 61.077 127.618C61.077 91.3463 90.5848 61.8385 126.856 61.8385C163.125 61.8385 192.633 91.3463 192.633 127.618C192.633 163.886 163.125 193.394 126.856 193.394ZM194.077 62.0071C186.319 62.0071 180.027 55.7155 180.027 47.9571C180.027 40.1987 186.319 33.9071 194.077 33.9071C201.835 33.9071 208.127 40.1987 208.127 47.9571C208.127 55.7155 201.835 62.0071 194.077 62.0071Z" fill="black" style="fill:black;fill-opacity:1;"/>
</svg>
